HIERARCHY
ROOT Hips
{
	OFFSET 181.407898 92.019173 39.530121
	CHANNELS 6 Xposition Yposition Zposition Zrotation Yrotation Xrotation 
	JOINT LeftUpLeg
	{
		OFFSET 0.103458 1.857830 10.548511
		CHANNELS 3 Zrotation Yrotation Xrotation
		JOINT LeftLeg
		{
			OFFSET 43.500000 -0.000034 0.000002
			CHANNELS 3 Zrotation Yrotation Xrotation
			JOINT LeftFoot
			{
				OFFSET 42.372192 0.000015 -0.000005
				CHANNELS 3 Zrotation Yrotation Xrotation
				JOINT LeftToe
				{
					OFFSET 17.299999 -0.000002 0.000006
					CHANNELS 3 Zrotation Yrotation Xrotation
					End Site
					{
						OFFSET 0.000000 0.000000 0.000000
					}
				}
			}
		}
	}
	JOINT RightUpLeg
	{
		OFFSET 0.103456 1.857828 -10.548506
		CHANNELS 3 Zrotation Yrotation Xrotation
		JOINT RightLeg
		{
			OFFSET 43.500038 -0.000023 0.000004
			CHANNELS 3 Zrotation Yrotation Xrotation
			JOINT RightFoot
			{
				OFFSET 42.372265 -0.000004 0.000015
				CHANNELS 3 Zrotation Yrotation Xrotation
				JOINT RightToe
				{
					OFFSET 17.299994 -0.000005 -0.000004
					CHANNELS 3 Zrotation Yrotation Xrotation
					End Site
					{
						OFFSET 0.000000 0.000000 0.000000
					}
				}
			}
		}
	}
	JOINT Spine
	{
		OFFSET 6.901968 -2.603730 -0.000005
		CHANNELS 3 Zrotation Yrotation Xrotation
		JOINT Spine1
		{
			OFFSET 12.588101 -0.000001 0.000008
			CHANNELS 3 Zrotation Yrotation Xrotation
			JOINT Spine2
			{
				OFFSET 12.343199 -0.000002 0.000004
				CHANNELS 3 Zrotation Yrotation Xrotation
				JOINT Neck
				{
					OFFSET 25.832901 -0.000004 -0.000011
					CHANNELS 3 Zrotation Yrotation Xrotation
					JOINT Head
					{
						OFFSET 11.766607 0.000005 0.000000
						CHANNELS 3 Zrotation Yrotation Xrotation
						End Site
						{
							OFFSET 0.000000 0.000000 0.000000
						}
					}
				}
				JOINT LeftShoulder
				{
					OFFSET 19.745911 -1.480373 6.000101
					CHANNELS 3 Zrotation Yrotation Xrotation
					JOINT LeftArm
					{
						OFFSET 11.284123 -0.000010 -0.000027
						CHANNELS 3 Zrotation Yrotation Xrotation
						JOINT LeftForeArm
						{
							OFFSET 33.000042 0.000003 0.000027
							CHANNELS 3 Zrotation Yrotation Xrotation
							JOINT LeftHand
							{
								OFFSET 25.200010 0.000018 0.000014
								CHANNELS 3 Zrotation Yrotation Xrotation
								End Site
								{
									OFFSET 0.000000 0.000000 0.000000
								}
							}
						}
					}
				}
				JOINT RightShoulder
				{
					OFFSET 19.746101 -1.480375 -6.000073
					CHANNELS 3 Zrotation Yrotation Xrotation
					JOINT RightArm
					{
						OFFSET 11.284151 -0.000017 -0.000003
						CHANNELS 3 Zrotation Yrotation Xrotation
						JOINT RightForeArm
						{
							OFFSET 33.000095 0.000018 0.000001
							CHANNELS 3 Zrotation Yrotation Xrotation
							JOINT RightHand
							{
								OFFSET 25.199774 0.000135 0.000424
								CHANNELS 3 Zrotation Yrotation Xrotation
								End Site
								{
									OFFSET 0.000000 0.000000 0.000000
								}
							}
						}
					}
				}
			}
		}
	}
}
MOTION
Frames: 16
Frame Time: 0.033333
304.553314 15.41542 -47.768929 93.171048 54.828428 95.452693 92.400718 -15.344701 176.918743 -127.378192 4.589438 -6.267732 72.709181 4.07589 -0.187598 21.45456 0.003114 1.9e-05 95.275825 12.844493 157.512563 -146.759004 -2.973469 3.601636 88.763281 -2.011366 0.903196 21.454551 -0.003101 -1e-06 17.756154 -0.776759 -2.184994 25.521454 -1.05323 -4.48738 25.204359 -1.080425 -4.480978 14.576083 -9.392411 2.12324 -29.984848 -2.059572 1.811682 95.856637 -72.105699 84.173073 64.931494 73.5401 75.485605 -30.842856 -14.908951 1.266722 65.894202 -41.058856 -58.443333 167.623142 75.385529 -11.274466 26.014391 -59.387586 -55.916959 -15.459641 12.580248 -0.874098 14.137631 50.589213 14.698781 
303.993591 14.8994 -49.980381 90.717971 55.126324 92.23678 93.505836 -16.158797 177.992981 -117.113593 3.701347 -6.742958 70.623275 3.902182 -1.945011 21.454558 0.003126 2.6e-05 93.515945 11.004697 162.212362 -144.564697 -3.312864 4.695869 85.084691 -2.998731 -0.23071 21.454555 -0.003095 -2e-06 17.637591 -0.485604 -2.225102 25.272033 -0.474231 -4.502367 24.954982 -0.501518 -4.499449 13.550579 -7.305923 3.039785 -29.252986 -3.154753 3.578801 92.556235 -71.897713 87.477894 65.821502 74.346882 77.524922 -31.996953 -15.090803 1.302058 67.548153 -39.210917 -58.925797 168.186824 76.603003 -10.649714 26.515769 -60.439108 -50.758397 -18.179935 13.704866 -0.970855 8.205546 57.725289 11.457231 
303.35611 14.33517 -52.320648 88.739771 54.626279 89.45552 94.918094 -16.728189 178.883843 -107.306302 2.636515 -7.190086 70.279792 3.844782 -3.253085 21.454562 0.003108 1.4e-05 90.986091 9.667209 166.527238 -142.391904 -3.5979 5.605287 82.736431 -3.956329 -1.532421 21.454555 -0.003088 1e-06 17.5316 -0.363797 -1.993757 25.055574 -0.28782 -4.018812 24.73832 -0.3122 -4.017034 11.782943 -4.02641 3.242734 -28.259822 -3.826998 4.556555 87.988191 -71.463989 92.055616 64.623111 75.435232 76.340246 -32.724946 -15.41483 1.338326 67.981986 -38.495978 -58.149649 164.670287 79.438782 -14.109497 30.07989 -63.459356 -51.836922 -22.339406 14.425703 -1.066611 2.663856 59.297237 4.395477 
302.487488 13.8063 -54.71553 86.592735 53.617344 87.350108 96.108746 -16.657395 -179.424398 -98.54239 1.40286 -6.811753 70.512455 3.315261 -4.248773 21.454558 0.003112 2.4e-05 89.107925 9.2876 171.25892 -139.865909 -3.847325 6.25452 79.975894 -4.843286 -2.974192 21.454553 -0.003097 0.0 17.484895 -0.133388 -1.656103 24.95563 0.093075 -3.301885 24.638113 0.073003 -3.302409 9.14312 -0.986179 3.301556 -27.055377 -4.763949 5.517648 87.194229 -71.063822 92.874091 57.31862 76.379499 68.332525 -32.777132 -15.928027 1.372452 67.318993 -38.791274 -56.426734 162.368978 81.104439 -16.366284 30.048178 -66.068215 -55.410019 -23.364252 15.13335 -1.125974 7.119175 61.034543 8.791115 
301.545502 13.37991 -57.285759 85.496469 52.169682 86.452532 97.349047 -15.894183 -177.19751 -90.988816 -0.244271 -6.327877 69.615726 2.554619 -5.607339 21.454557 0.003117 2.8e-05 87.693912 9.519703 175.260427 -136.570507 -4.06274 6.766516 75.199652 -5.852959 -4.559652 21.454553 -0.003084 2e-06 17.478825 0.003807 -1.375923 24.941272 0.303718 -2.718625 24.623559 0.28716 -2.720431 5.369122 0.826561 3.039206 -25.334293 -4.804364 5.539221 86.822332 -70.908558 93.254178 46.083293 76.985644 57.505002 -32.749972 -16.835674 1.43017 66.918553 -38.621158 -55.187915 156.439732 81.211953 -22.362943 28.572812 -68.236049 -54.953148 -23.682955 15.50978 -1.154529 9.8419 62.549991 11.518424 
300.513306 13.01476 -60.041019 84.904347 50.349119 86.363712 98.204842 -14.472198 -174.988217 -85.010652 -1.589952 -6.599978 67.837589 2.534854 -6.161168 21.454558 0.003107 1.6e-05 86.366881 10.048796 178.200851 -133.009601 -4.196335 7.420872 70.698796 -6.369256 -3.972587 21.454551 -0.003086 1e-06 17.456451 0.136074 -1.102361 24.895512 0.505832 -2.149641 24.577637 0.492707 -2.152685 1.399887 1.77416 2.47873 -23.70189 -4.095403 4.824006 86.435941 -70.632298 93.659604 32.122745 77.162928 43.108285 -32.393511 -17.101469 1.43955 66.014086 -39.148906 -53.630768 151.022668 81.058178 -27.851394 25.666077 -70.073247 -53.292681 -23.963777 15.33176 -1.147391 14.237746 64.004323 16.043373 
299.472687 12.60599 -62.56218 84.633994 48.763354 86.605986 98.977405 -13.123504 -173.357305 -80.892642 -2.44592 -7.363593 66.56964 2.747229 -7.053925 21.454558 0.0031 9e-06 85.15636 10.554784 -179.411161 -129.975208 -4.260806 8.104244 67.651104 -6.834736 -3.478977 21.454555 -0.003086 3e-06 17.475488 0.224105 -0.837934 24.934091 0.623294 -1.607939 24.616099 0.613425 -1.611693 -1.861041 2.052095 2.062151 -22.509228 -3.293939 4.120514 86.476151 -70.236543 93.657302 19.462643 76.496063 29.531047 -32.389594 -17.296329 1.451958 64.852107 -40.014168 -51.599672 146.240115 81.019526 -32.687878 22.72776 -71.723188 -51.869181 -24.485943 15.266226 -1.151115 19.717332 65.022527 21.572557 
298.367798 12.11158 -65.028961 84.263436 47.246802 86.827906 99.650684 -12.20661 -172.435871 -78.202866 -2.812643 -7.659296 66.692638 3.070785 -6.81744 21.454553 0.003111 1.8e-05 84.059097 10.789088 -177.064581 -127.064099 -4.258931 8.517443 65.415508 -7.07239 -3.022049 21.454553 -0.003081 2e-06 17.481029 0.315652 -0.599083 24.946055 0.752869 -1.116127 24.62799 0.745991 -1.120673 -4.408799 1.846754 1.809677 -21.851433 -2.466093 3.462664 86.316079 -70.092658 93.827852 9.516551 75.399052 18.813365 -32.667685 -17.630776 1.479408 63.73951 -40.905709 -49.543525 142.895371 80.576753 -36.098096 20.265634 -72.790733 -50.062879 -25.658113 15.496816 -1.184263 23.535247 65.96973 25.167063 
297.409607 11.55064 -66.948463 82.782036 45.884863 85.552716 99.685211 -12.446889 -171.128682 -76.3105 -2.946681 -7.698259 65.055312 3.006769 -6.844095 21.454558 0.003105 1.2e-05 83.288153 10.748906 -174.157079 -124.436607 -4.184716 8.671425 63.44323 -7.274607 -2.989981 21.454551 -0.003094 -1e-06 17.508481 0.41696 -0.199157 25.003658 0.867076 -0.303638 24.685519 0.86509 -0.308884 -6.425237 1.488728 1.641808 -21.750695 -1.762513 2.900545 85.318905 -70.047012 94.810409 1.68221 74.461452 9.880617 -32.67446 -17.94347 1.499621 62.245358 -41.937146 -47.407995 139.43017 80.422848 -39.609005 17.696286 -73.891438 -48.842881 -26.695226 15.782817 -1.21969 27.970933 66.770194 29.497094 
296.369995 11.04409 -69.018341 82.19046 44.533837 85.648182 99.830386 -12.200606 -170.287654 -71.516035 -3.238022 -6.94526 62.861475 3.145301 -4.850104 21.454555 0.003106 1.4e-05 82.652078 10.962604 -172.39071 -121.723711 -4.073748 9.358261 61.238506 -7.468169 -2.017552 21.454553 -0.003098 1e-06 17.540923 0.514956 -0.010468 25.070387 1.01999 0.090714 24.752238 1.020381 0.084529 -8.778954 0.930609 1.574499 -21.098222 -1.091004 2.363493 84.491612 -69.718692 95.651704 -3.691451 73.310107 3.08234 -33.474259 -18.271333 1.538283 60.911538 -43.017491 -45.22343 136.721727 80.584846 -42.329722 14.656797 -74.940603 -47.094154 -28.236543 16.113408 -1.267883 31.37307 67.526331 32.563839 
295.291412 10.53162 -71.128242 82.331585 43.265966 86.781877 100.320309 -11.58599 -169.922061 -66.441676 -3.444373 -6.33587 61.586907 2.539893 -5.150056 21.454558 0.00311 2.3e-05 81.983498 11.351809 -171.520189 -119.018792 -3.941634 9.980955 58.745023 -7.421489 -0.67213 21.454553 -0.003099 -1e-06 17.562148 0.571371 -0.003841 25.113257 1.129971 0.116209 24.795076 1.130517 0.109369 -10.826541 0.563371 1.625288 -20.600824 -0.674981 2.108218 83.734035 -69.69316 96.396372 -6.976454 71.67466 -0.047747 -34.867371 -18.658345 1.595031 60.730743 -43.174811 -44.162101 134.770929 80.714579 -44.286598 11.860241 -75.812115 -45.184713 -30.331357 16.546432 -1.335255 33.086379 68.470399 33.675107 
294.322388 10.02181 -72.72393 81.927634 42.368968 87.067912 100.595887 -11.754284 -169.373351 -62.853607 -3.619912 -6.450042 60.979348 2.226505 -6.050023 21.454555 0.003103 1.3e-05 81.602305 11.401797 -170.286451 -116.79491 -3.812338 10.421652 56.647492 -7.495438 0.005196 21.454553 -0.003093 0.0 17.538789 0.655879 0.101979 25.068208 1.274154 0.343447 24.750034 1.276078 0.335726 -11.567452 0.005747 1.892236 -20.844255 -0.388528 2.044974 83.276542 -69.957878 96.820397 -9.198185 70.068261 -2.480639 -36.096197 -18.39484 1.607271 59.907391 -43.69424 -42.534317 132.653612 80.952823 -46.401081 11.100542 -76.48786 -45.246216 -32.698465 17.019802 -1.414382 33.863385 69.577395 33.788434 
293.489105 9.532467 -74.046654 81.997999 42.002395 87.474212 101.134536 -11.789404 -169.219344 -60.088815 -3.48972 -7.256353 61.643673 2.907058 -5.929555 21.454553 0.003115 2e-05 81.463052 11.353106 -169.586972 -114.981604 -3.679413 10.866765 54.825539 -7.665748 0.426965 21.454551 -0.003093 1e-06 17.468291 0.635327 0.143703 24.927431 1.224878 0.42072 24.609259 1.227246 0.413291 -10.778177 -0.572961 2.154893 -21.501002 0.074446 1.904654 83.056186 -69.858451 97.045227 -9.033515 68.762287 -2.650264 -37.539331 -18.49028 1.649081 59.228484 -43.969374 -40.812843 132.16722 80.915434 -46.894211 12.407868 -76.709663 -46.573919 -35.491336 17.130367 -1.48423 31.728302 70.964573 30.659999 
292.831604 8.944744 -74.948547 82.417605 42.617273 87.857714 102.260295 -11.923902 -168.902669 -58.300159 -3.720082 -8.322033 62.510001 3.640585 -6.1886 21.45455 0.003123 2.5e-05 81.862822 11.268215 -169.405794 -113.747006 -3.598881 11.238184 53.053651 -7.492866 1.392641 21.454551 -0.003087 0.0 17.499003 0.542707 0.161173 24.98817 1.037889 0.435584 24.670035 1.040378 0.429293 -10.067396 -0.545604 2.474829 -21.678886 0.021915 2.265144 82.4305 -70.176567 97.629372 -9.158941 67.65146 -2.563221 -38.717231 -18.650624 1.689641 58.767692 -44.203823 -39.569028 132.899116 81.037285 -46.146821 16.536576 -76.891305 -49.657985 -39.20629 17.15345 -1.577437 23.874335 72.449825 21.170788 
292.405792 8.307262 -75.334259 83.212079 43.995619 87.956786 103.682634 -12.333505 -169.391301 -57.776331 -3.50208 -9.048344 63.487462 3.992395 -6.77112 21.454551 0.003113 2.3e-05 82.504177 10.7896 -169.658457 -113.2032 -3.588371 11.521935 51.46247 -7.238481 2.31751 21.454548 -0.00309 -2e-06 17.508352 0.373881 0.218817 25.005881 0.691746 0.513117 24.687773 0.694704 0.508913 -8.67581 -0.801315 2.711064 -21.911074 0.149944 2.37282 82.360982 -70.55804 97.663263 -8.930092 66.892141 -2.82701 -39.761663 -18.683469 1.719324 57.393383 -44.953908 -37.445706 133.118037 81.525855 -45.88601 23.922507 -77.02612 -55.957052 -43.198764 17.139644 -1.685205 13.55165 73.355207 9.080958 
292.185791 7.786123 -75.498039 84.622089 45.57636 88.018811 105.465839 -13.11909 -170.36228 -57.526223 -3.585449 -9.695608 64.143119 4.284028 -7.350259 21.45456 0.003101 9e-06 83.100384 10.047106 -170.358756 -112.973501 -3.536608 11.637688 50.301946 -7.156866 2.625642 21.454551 -0.003084 -0.0 17.419839 0.112872 0.327527 24.827299 0.152985 0.671597 24.509229 0.15691 0.670643 -6.633717 -1.065885 2.77623 -22.533204 0.18986 2.360476 83.117139 -71.36196 96.849603 -9.845559 66.306151 -4.124373 -40.26401 -18.910849 1.747654 54.768384 -45.794154 -34.043702 134.096667 81.616082 -44.893013 32.806054 -76.227834 -63.149737 -47.832348 16.988791 -1.813733 2.823981 73.301365 -3.546826 
